<svg width="37" height="30" viewBox="0 0 37 30" fill="none" xmlns="http://www.w3.org/2000/svg">
<path fill-rule="evenodd" clip-rule="evenodd" d="M2.56066 0.43934C1.97487 -0.146447 1.02513 -0.146447 0.43934 0.43934C-0.146447 1.02513 -0.146447 1.97487 0.43934 2.56066L17.318 19.4393C17.9038 20.0251 18.8536 20.0251 19.4393 19.4393L36.318 2.56066C36.9038 1.97487 36.9038 1.02513 36.318 0.43934C35.7322 -0.146447 34.7825 -0.146447 34.1967 0.43934L18.3787 16.2574L2.56066 0.43934Z" fill="#FFDEA5"/>
<path fill-rule="evenodd" clip-rule="evenodd" d="M2.56066 9.93934C1.97487 9.35355 1.02513 9.35355 0.43934 9.93934C-0.146447 10.5251 -0.146447 11.4749 0.43934 12.0607L17.318 28.9393C17.9038 29.5251 18.8536 29.5251 19.4393 28.9393L36.318 12.0607C36.9038 11.4749 36.9038 10.5251 36.318 9.93934C35.7322 9.35355 34.7825 9.35355 34.1967 9.93934L18.3787 25.7574L2.56066 9.93934Z" fill="#FFDEA5"/>
</svg>
