<svg width="30" height="30" viewBox="0 0 30 30" fill="none" xmlns="http://www.w3.org/2000/svg">
<path d="M14.5588 0.356552C14.6608 -0.118851 15.3392 -0.118851 15.4412 0.356553L17.8906 11.7629C17.9279 11.9365 18.0635 12.0721 18.2371 12.1094L29.6434 14.5588C30.1189 14.6608 30.1189 15.3392 29.6434 15.4412L18.2371 17.8906C18.0635 17.9279 17.9279 18.0635 17.8906 18.2371L15.4412 29.6434C15.3392 30.1189 14.6608 30.1189 14.5588 29.6434L12.1094 18.2371C12.0721 18.0635 11.9365 17.9279 11.7629 17.8906L0.356552 15.4412C-0.118851 15.3392 -0.118851 14.6608 0.356553 14.5588L11.7629 12.1094C11.9365 12.0721 12.0721 11.9365 12.1094 11.7629L14.5588 0.356552Z" fill="#FFDEA5"/>
</svg>
